<svg width="25" height="24" viewBox="0 0 25 24" fill="none" xmlns="http://www.w3.org/2000/svg">
<path fill-rule="evenodd" clip-rule="evenodd" d="M13.002 23C18.5248 23 23.002 18.5228 23.002 13C23.002 10.9218 22.368 8.9917 21.283 7.39247L13.2459 16.3226C12.5532 17.0922 11.3876 17.2059 10.5593 16.5847L6.8464 13.8C6.40457 13.4686 6.31503 12.8418 6.6464 12.4C6.97777 11.9582 7.60457 11.8686 8.0464 12.2L11.7593 14.9847L19.9864 5.84339C18.184 4.08408 15.7196 3 13.002 3C7.47911 3 3.00195 7.47715 3.00195 13C3.00195 18.5228 7.47911 23 13.002 23Z" fill="white"/>
</svg>
