<svg width="25" height="24" viewBox="0 0 25 24" fill="none" xmlns="http://www.w3.org/2000/svg">
  <ellipse cx="12.0019" cy="14.2144" rx="8" ry="7.78571" fill="white" />
  <path
    d="M6.05695 2H17.8735V4.35714C17.8735 4.35714 16.6258 5.60714 11.9652 5.60714C7.30465 5.60714 6.05695 4.35714 6.05695 4.35714V2Z"
    fill="white" />
  <path fill-rule="evenodd" clip-rule="evenodd"
    d="M12.8065 8.55357C12.5425 8.51825 12.273 8.5 11.9991 8.5C8.75635 8.5 6.12756 11.0584 6.12756 14.2143C6.12756 17.3702 8.75635 19.9286 11.9991 19.9286C12.273 19.9286 12.5425 19.9103 12.8065 19.875V8.55357Z"
    fill="white" />
  <path
    d="M9.98961 15.8279L9.11067 14.9725C8.72895 14.601 8.7416 13.984 9.13823 13.6284C9.50712 13.2978 10.0716 13.3187 10.4151 13.6757L10.5984 13.8663C11.0508 14.3366 11.797 14.3564 12.2738 13.9108L14.5119 11.8189C14.854 11.4992 15.3857 11.5007 15.726 11.8224C16.095 12.1713 16.096 12.7583 15.7281 13.1085L12.854 15.8439C12.05 16.6091 10.785 16.602 9.98961 15.8279Z"
    fill="#3F3F3F" />
</svg>
