<svg width="25" height="24" viewBox="0 0 25 24" fill="none" xmlns="http://www.w3.org/2000/svg">
  <path fill-rule="evenodd" clip-rule="evenodd"
    d="M13.9857 2.54161C14.073 2.71093 14.0947 2.92777 14.138 3.36144C14.2201 4.1823 14.2612 4.59274 14.433 4.81793C14.6509 5.10358 15.0053 5.25038 15.3613 5.20248C15.642 5.16472 15.9613 4.90352 16.5998 4.38113C16.9371 4.10515 17.1057 3.96716 17.2872 3.90918C17.5177 3.83555 17.7671 3.84798 17.9891 3.94419C18.1639 4.01994 18.318 4.17402 18.6262 4.4822L19.5196 5.37567C19.8278 5.68385 19.9819 5.83794 20.0577 6.01275C20.1539 6.23478 20.1663 6.48415 20.0927 6.71464C20.0347 6.89612 19.8967 7.06478 19.6207 7.4021C19.0983 8.0406 18.8371 8.35984 18.7994 8.64056C18.7515 8.99662 18.8983 9.35102 19.1839 9.56893C19.4091 9.74072 19.8195 9.78176 20.6404 9.86385C21.0741 9.90722 21.291 9.92891 21.4603 10.0162C21.6753 10.1272 21.8429 10.3123 21.9318 10.5373C22.0019 10.7145 22.0019 10.9324 22.0019 11.3682V12.6319C22.0019 13.0676 22.0019 13.2855 21.9319 13.4626C21.8429 13.6877 21.6753 13.8729 21.4602 13.9838C21.2909 14.0711 21.0741 14.0928 20.6405 14.1361L20.6405 14.1361C19.8199 14.2182 19.4096 14.2592 19.1844 14.4309C18.8986 14.6489 18.7518 15.0034 18.7998 15.3596C18.8376 15.6402 19.0987 15.9593 19.6209 16.5976C19.8968 16.9348 20.0347 17.1034 20.0927 17.2848C20.1664 17.5154 20.1539 17.7648 20.0577 17.9869C19.9819 18.1617 19.8279 18.3157 19.5198 18.6238L18.6262 19.5174C18.3181 19.8255 18.164 19.9796 17.9892 20.0554C17.7671 20.1516 17.5177 20.164 17.2873 20.0904C17.1058 20.0324 16.9371 19.8944 16.5998 19.6184L16.5998 19.6184C15.9613 19.096 15.6421 18.8348 15.3614 18.7971C15.0053 18.7492 14.6509 18.896 14.433 19.1816C14.2612 19.4068 14.2202 19.8173 14.1381 20.6383C14.0947 21.0722 14.073 21.2891 13.9856 21.4585C13.8747 21.6735 13.6896 21.8409 13.4647 21.9299C13.2875 22 13.0695 22 12.6335 22H11.3701C10.9343 22 10.7164 22 10.5392 21.9299C10.3142 21.841 10.1291 21.6734 10.0181 21.4584C9.9308 21.2891 9.90912 21.0722 9.86575 20.6385C9.78366 19.8176 9.74261 19.4072 9.57081 19.182C9.3529 18.8964 8.99852 18.7496 8.64246 18.7975C8.36174 18.8352 8.04248 19.0964 7.40397 19.6189L7.40395 19.6189C7.06663 19.8949 6.89796 20.0329 6.71647 20.0908C6.48599 20.1645 6.23663 20.152 6.01461 20.0558C5.83979 19.9801 5.6857 19.826 5.3775 19.5178L4.48406 18.6243C4.17587 18.3162 4.02178 18.1621 3.94603 17.9873C3.84983 17.7652 3.83739 17.5159 3.91102 17.2854C3.969 17.1039 4.107 16.9352 4.383 16.5979C4.9054 15.9594 5.1666 15.6402 5.20436 15.3594C5.25226 15.0034 5.10547 14.649 4.81982 14.4311C4.59462 14.2593 4.18419 14.2182 3.36332 14.1361C2.92966 14.0928 2.71282 14.0711 2.5435 13.9838C2.32845 13.8728 2.16091 13.6877 2.07194 13.4627C2.00189 13.2855 2.00189 13.0676 2.00189 12.6318V11.3683C2.00189 10.9324 2.00189 10.7144 2.07198 10.5372C2.16094 10.3123 2.32843 10.1272 2.54341 10.0163C2.71277 9.92891 2.92966 9.90722 3.36344 9.86384H3.36345H3.36345C4.18454 9.78173 4.59508 9.74068 4.82031 9.56881C5.10584 9.35092 5.25259 8.99664 5.20476 8.64066C5.16703 8.35987 4.90574 8.04052 4.38317 7.40182C4.10706 7.06435 3.969 6.89561 3.91103 6.71405C3.83746 6.48364 3.84989 6.23438 3.94602 6.01243C4.02177 5.83754 4.17592 5.68339 4.48423 5.37509L5.37755 4.48177L5.37755 4.48177C5.68574 4.17357 5.83984 4.01947 6.01466 3.94373C6.23667 3.84753 6.48604 3.8351 6.71652 3.90872C6.89801 3.9667 7.0667 4.10472 7.40409 4.38076C8.04251 4.9031 8.36171 5.16427 8.64233 5.20207C8.99851 5.25003 9.35303 5.10319 9.57096 4.81742C9.74267 4.59227 9.7837 4.18195 9.86576 3.36131C9.90912 2.92776 9.93079 2.71098 10.0181 2.5417C10.129 2.32658 10.3142 2.15898 10.5393 2.07001C10.7164 2 10.9343 2 11.37 2H12.6337C13.0695 2 13.2874 2 13.4646 2.07005C13.6896 2.15902 13.8747 2.32656 13.9857 2.54161ZM12.0019 16C14.211 16 16.0019 14.2091 16.0019 12C16.0019 9.79086 14.211 8 12.0019 8C9.79275 8 8.00189 9.79086 8.00189 12C8.00189 14.2091 9.79275 16 12.0019 16Z"
    fill="white" />
</svg>
