<svg width="25" height="24" viewBox="0 0 25 24" fill="none" xmlns="http://www.w3.org/2000/svg">
<path d="M12.0047 12.1948C8.95865 12.1948 6.45325 14.5584 6.15227 17.5867C6.11883 17.9236 6.3968 18.1992 6.73582 18.1992H17.2741C17.6128 18.1992 17.8908 17.9236 17.8573 17.5864C17.5567 14.5584 15.0513 12.1951 12.0047 12.1951V12.1948Z" fill="white"/>
<path d="M15.0749 8.07553C15.0749 9.7741 13.6982 11.1514 12 11.1514C10.3018 11.1514 8.92517 9.7741 8.92517 8.07553C8.92517 6.37696 10.3018 5 12 5C13.6982 5 15.0749 6.37696 15.0749 8.07553Z" fill="white"/>
<path d="M17.0725 15.1597C16.58 14.3059 15.884 13.5873 15.0466 13.0677C15.7707 11.7242 17.171 10.814 18.7796 10.814C20.9275 10.814 22.704 12.4373 22.9954 14.5474C23.0418 14.8832 22.7629 15.1597 22.4239 15.1597H17.0725Z" fill="white"/>
<path d="M18.7761 10.0584C19.3664 10.0584 19.9325 9.82385 20.3499 9.40638C20.7672 8.9889 21.0017 8.42269 21.0017 7.83229C21.0017 7.2419 20.7672 6.67568 20.3499 6.25821C19.9325 5.84074 19.3664 5.6062 18.7761 5.6062C18.1859 5.6062 17.6198 5.84074 17.2024 6.25821C16.785 6.67568 16.5505 7.2419 16.5505 7.83229C16.5505 8.42269 16.785 8.9889 17.2024 9.40638C17.6198 9.82385 18.1859 10.0584 18.7761 10.0584Z" fill="white"/>
<path d="M6.93019 15.1597C7.42264 14.306 8.11847 13.5873 8.95574 13.0677C8.23167 11.7242 6.8314 10.814 5.22311 10.814C3.07514 10.814 1.2984 12.4373 1.00694 14.5474C0.960915 14.8832 1.24011 15.1597 1.57883 15.1597H6.93019Z" fill="white"/>
<path d="M5.2212 10.0584C4.63093 10.0584 4.06485 9.82385 3.64747 9.40638C3.23009 8.9889 2.99561 8.42269 2.99561 7.83229C2.99561 7.2419 3.23009 6.67568 3.64747 6.25821C4.06485 5.84074 4.63093 5.6062 5.2212 5.6062C5.81146 5.6062 6.37755 5.84074 6.79493 6.25821C7.21231 6.67568 7.44679 7.2419 7.44679 7.83229C7.44679 8.42269 7.21231 8.9889 6.79493 9.40638C6.37755 9.82385 5.81146 10.0584 5.2212 10.0584Z" fill="white"/>
</svg>
